<svg width="13" height="12" viewBox="0 0 13 12" fill="none" xmlns="http://www.w3.org/2000/svg">
<g clip-path="url(#clip0_6036_6146)">
<path d="M12.6948 5.4653L10.2247 1.18076C10.1305 1.02052 9.99611 0.887666 9.83479 0.795329C9.67347 0.702992 9.49084 0.654368 9.30496 0.654297H4.36497C4.17862 0.654357 3.99558 0.70345 3.83421 0.79664C3.67284 0.889829 3.53883 1.02384 3.44564 1.18521L0.975605 5.46974C0.883432 5.63154 0.834961 5.81455 0.834961 6.00076C0.834961 6.18697 0.883432 6.36998 0.975605 6.53178L3.44564 10.816C3.53833 10.9779 3.67222 11.1123 3.8337 11.2056C3.99518 11.2989 4.17848 11.3477 4.36497 11.3472H9.30496C9.49135 11.3472 9.67444 11.2981 9.83583 11.2048C9.99722 11.1116 10.1312 10.9775 10.2244 10.816L12.6944 6.53178C12.7866 6.36921 12.8351 6.1855 12.8352 5.99859C12.8353 5.81168 12.7869 5.62793 12.6948 5.4653ZM6.83535 9.67647V8.93944C7.61537 8.93816 8.36305 8.62759 8.9144 8.07582C9.46575 7.52406 9.77577 6.77616 9.77646 5.99614C9.77586 5.21609 9.46588 4.46814 8.91451 3.91635C8.36313 3.36457 7.6154 3.05402 6.83535 3.05285C6.05531 3.05402 5.30758 3.36457 4.7562 3.91635C4.20483 4.46814 3.89485 5.21609 3.89425 5.99614C3.89244 6.63802 4.10314 7.26246 4.49346 7.77203L5.02402 7.25495C4.76632 6.88592 4.62895 6.4463 4.63071 5.99621C4.63166 5.41042 4.86467 4.84888 5.27873 4.43451C5.69279 4.02013 6.25415 3.78669 6.83994 3.78529C7.42573 3.78669 7.98711 4.02013 8.40116 4.43451C8.81522 4.84888 9.04823 5.41042 9.04918 5.99621C9.04829 6.58202 8.8153 7.14359 8.40123 7.55798C7.98716 7.97237 7.42575 8.20579 6.83994 8.20713V7.47013C7.03345 7.47021 7.22507 7.43212 7.40385 7.35807C7.58263 7.28403 7.74506 7.17546 7.88185 7.03859C8.01863 6.90171 8.1271 6.73923 8.20103 6.56041C8.27497 6.38158 8.31292 6.18992 8.31273 5.99642C8.31293 5.8029 8.27498 5.61124 8.20105 5.43239C8.12713 5.25355 8.01867 5.09104 7.88189 4.95414C7.7451 4.81725 7.58267 4.70866 7.40389 4.63459C7.2251 4.56052 7.03347 4.52241 6.83994 4.52246C6.44861 4.52216 6.07317 4.67724 5.79613 4.95363C5.51909 5.23002 5.36312 5.60508 5.36251 5.99642C5.36201 6.25363 5.42987 6.50636 5.55915 6.72872L6.10807 6.19315C6.08966 6.12921 6.08041 6.06296 6.0806 5.99642C6.08077 5.79627 6.16032 5.60435 6.3018 5.46278C6.44327 5.3212 6.63514 5.24154 6.83528 5.24124C7.03544 5.24152 7.22732 5.3212 7.36882 5.46278C7.51031 5.60435 7.58987 5.79626 7.59004 5.99642C7.58987 6.19658 7.51031 6.38852 7.36882 6.53009C7.22732 6.67167 7.03544 6.75131 6.83528 6.75159C6.76216 6.75089 6.68961 6.73861 6.62034 6.71517L4.72211 8.5729C4.70441 8.59074 4.68441 8.60613 4.66263 8.61867C4.65804 8.62333 4.64886 8.62332 4.64434 8.62805C4.63008 8.63746 4.6147 8.64507 4.59856 8.65068C4.58945 8.65534 4.58034 8.65533 4.57116 8.66006C4.55739 8.66472 4.54368 8.66919 4.52998 8.6742C4.5206 8.67351 4.51118 8.67503 4.5025 8.67865C4.4888 8.67865 4.47503 8.6831 4.46584 8.6831C4.45214 8.6831 4.43844 8.67872 4.42466 8.67872C4.41382 8.67916 4.40299 8.67768 4.39266 8.67434C4.37896 8.66968 4.36519 8.66521 4.35148 8.6602C4.3423 8.65554 4.33318 8.65555 4.324 8.65082C4.30934 8.64512 4.2955 8.63753 4.28282 8.62823C4.27464 8.62447 4.26696 8.61971 4.25994 8.61409C4.24676 8.60459 4.23451 8.59387 4.22334 8.58208C4.21882 8.57742 4.20964 8.5727 4.20505 8.56387C3.53227 7.87667 3.15614 6.95284 3.15758 5.99114C3.15885 5.01594 3.54663 4.08098 4.23596 3.39117C4.92528 2.70135 5.85994 2.31291 6.83514 2.31095C7.81034 2.31291 8.745 2.70135 9.43433 3.39117C10.1237 4.08098 10.5114 5.01594 10.5127 5.99114C10.5125 6.96719 10.1253 7.90329 9.43581 8.59418C8.74637 9.28508 7.81104 9.67433 6.835 9.67654L6.83535 9.67647Z" fill="white"/>
</g>
<defs>
<clipPath id="clip0_6036_6146">
<rect width="12" height="12" fill="white" transform="translate(0.834961)"/>
</clipPath>
</defs>
</svg>
