<svg width="14" height="15" viewBox="0 0 14 15" fill="none" xmlns="http://www.w3.org/2000/svg">
<g clip-path="url(#clip0_6036_6158)">
<path d="M11.0628 12.4845H2.1145C1.57896 12.4837 1.06558 12.2573 0.68694 11.855C0.308301 11.4526 0.0953244 10.9071 0.0947266 10.3381V4.32569C0.0953244 3.75673 0.308313 3.21126 0.686963 2.80894C1.06561 2.40662 1.579 2.18032 2.1145 2.17969H11.0628C11.5983 2.18032 12.1118 2.40661 12.4905 2.80891C12.8692 3.21122 13.0823 3.75669 13.083 4.32569V10.3381C13.0823 10.9072 12.8694 11.4528 12.4906 11.8551C12.1119 12.2575 11.5984 12.4838 11.0628 12.4845ZM2.1145 3.17969C1.82852 3.18 1.55436 3.30085 1.35215 3.51569C1.14994 3.73054 1.0362 4.02185 1.0359 4.32569V10.3381C1.0361 10.642 1.14979 10.9334 1.35201 11.1483C1.55423 11.3632 1.82846 11.4841 2.1145 11.4845H11.0628C11.3489 11.4841 11.6231 11.3633 11.8255 11.1484C12.0277 10.9334 12.1415 10.642 12.1418 10.3381V4.32569C12.1414 4.02181 12.0276 3.73051 11.8253 3.51567C11.623 3.30083 11.3488 3.18 11.0628 3.17969H2.1145Z" fill="white"/>
<path d="M11.0628 12.4845H2.1145C1.57896 12.4837 1.06558 12.2573 0.68694 11.855C0.308301 11.4526 0.0953244 10.9071 0.0947266 10.3381V4.32569C0.0953244 3.75673 0.308313 3.21126 0.686963 2.80894C1.06561 2.40662 1.579 2.18032 2.1145 2.17969H11.0628C11.5983 2.18032 12.1118 2.40661 12.4905 2.80891C12.8692 3.21122 13.0823 3.75669 13.083 4.32569V10.3381C13.0823 10.9072 12.8694 11.4528 12.4906 11.8551C12.1119 12.2575 11.5984 12.4838 11.0628 12.4845ZM2.1145 3.17969C1.82852 3.18 1.55436 3.30085 1.35215 3.51569C1.14994 3.73054 1.0362 4.02185 1.0359 4.32569V10.3381C1.0361 10.642 1.14979 10.9334 1.35201 11.1483C1.55423 11.3632 1.82846 11.4841 2.1145 11.4845H11.0628C11.3489 11.4841 11.6231 11.3633 11.8255 11.1484C12.0277 10.9334 12.1415 10.642 12.1418 10.3381V4.32569C12.1414 4.02181 12.0276 3.73051 11.8253 3.51567C11.623 3.30083 11.3488 3.18 11.0628 3.17969H2.1145Z" fill="white"/>
<path d="M6.5829 8.67704C6.18806 8.68116 5.80343 8.5438 5.49113 8.28707L0.458475 4.02587C0.360875 3.94317 0.298192 3.82267 0.284212 3.69087C0.270233 3.55907 0.306104 3.42677 0.383934 3.32307C0.461764 3.21937 0.575178 3.15276 0.699226 3.13791C0.823273 3.12306 0.947793 3.16117 1.04539 3.24387L6.07654 7.50507C6.22517 7.61707 6.40299 7.677 6.58521 7.6765C6.76741 7.676 6.94494 7.61509 7.09302 7.50227L12.0621 3.24587C12.1592 3.16264 12.2834 3.12381 12.4075 3.13791C12.5315 3.15201 12.6451 3.2179 12.7235 3.32107C12.8019 3.42424 12.8383 3.55624 12.8251 3.68804C12.8118 3.81985 12.7498 3.94064 12.6527 4.02387L7.6852 8.28026C7.37075 8.54152 6.98206 8.6814 6.5829 8.67704Z" fill="white"/>
</g>
<defs>
<clipPath id="clip0_6036_6158">
<rect width="13.1765" height="14" fill="white" transform="translate(0 0.332031)"/>
</clipPath>
</defs>
</svg>
