<svg width="13" height="12" viewBox="0 0 13 12" fill="none" xmlns="http://www.w3.org/2000/svg">
<g clip-path="url(#clip0_6036_6136)">
<mask id="mask0_6036_6136" style="mask-type:luminance" maskUnits="userSpaceOnUse" x="0" y="0" width="13" height="12">
<path d="M12.6699 0H0.669922V12H12.6699V0Z" fill="white"/>
</mask>
<g mask="url(#mask0_6036_6136)">
<path d="M12.6699 2.27755C12.2284 2.47355 11.7539 2.60555 11.2559 2.66505C11.7644 2.36055 12.1549 1.87805 12.3384 1.30305C11.8629 1.58505 11.3359 1.79005 10.7749 1.90055C10.3264 1.42205 9.68592 1.12305 8.97792 1.12305C7.38842 1.12305 6.22042 2.60605 6.57942 4.14555C4.53392 4.04305 2.71992 3.06305 1.50542 1.57355C0.860422 2.68005 1.17092 4.12755 2.26692 4.86055C1.86392 4.84755 1.48392 4.73705 1.15242 4.55255C1.12542 5.69305 1.94292 6.76005 3.12692 6.99755C2.78042 7.09155 2.40092 7.11355 2.01492 7.03955C2.32792 8.01755 3.23692 8.72905 4.31492 8.74905C3.27992 9.56055 1.97592 9.92305 0.669922 9.76905C1.75942 10.4676 3.05392 10.8751 4.44392 10.8751C9.01492 10.8751 11.5974 7.01455 11.4414 3.55205C11.9224 3.20455 12.3399 2.77105 12.6699 2.27755Z" fill="white"/>
</g>
</g>
<defs>
<clipPath id="clip0_6036_6136">
<rect width="12" height="12" fill="white" transform="translate(0.669922)"/>
</clipPath>
</defs>
</svg>
