<svg width="14" height="14" viewBox="0 0 14 14" fill="none" xmlns="http://www.w3.org/2000/svg">
<g clip-path="url(#clip0_6036_6367)">
<path d="M8.5953 4.44041C8.25662 2.23122 7.40791 0.667969 6.46324 0.667969C5.49397 0.667969 4.67065 2.23122 4.30658 4.44041H8.5953ZM4.13763 6.82428C4.13763 7.39466 4.16143 7.91628 4.20902 8.41272H8.69207C8.74125 7.91628 8.76505 7.39466 8.76505 6.82428C8.76505 6.27828 8.74125 5.75666 8.69207 5.23584H4.20981C4.16076 5.76383 4.1372 6.29391 4.13763 6.82428ZM11.9877 4.44122C11.6429 3.60352 11.1205 2.85491 10.4583 2.24964C9.79607 1.64438 9.01068 1.19763 8.15906 0.941781C8.76504 1.78516 9.15291 3.05103 9.37104 4.44122H11.9877ZM4.74283 0.941781C3.89113 1.19744 3.10564 1.64402 2.44329 2.24914C1.78094 2.85426 1.25834 3.60277 0.913353 4.44041H3.53085C3.74818 3.05103 4.13604 1.78434 4.74203 0.940969L4.74283 0.941781ZM12.2542 5.23584H9.4678C9.51619 5.75666 9.56457 6.30266 9.56457 6.82428C9.56457 7.37028 9.51619 7.89109 9.4678 8.41272H12.2542C12.3827 7.89349 12.4477 7.35992 12.4478 6.82428C12.4478 6.27828 12.3756 5.75666 12.2542 5.23584ZM3.3619 6.82347C3.3619 6.30184 3.3857 5.75584 3.43408 5.23503H0.647638C0.522224 5.75484 0.457261 6.28803 0.454102 6.82347C0.454102 7.39384 0.526281 7.91547 0.647638 8.41191H3.43408C3.38529 7.88391 3.3612 7.35382 3.3619 6.82347ZM4.30658 9.20572C4.66986 11.4401 5.49397 12.979 6.46324 12.979C7.40791 12.979 8.25582 11.4401 8.5953 9.20572H4.30658ZM8.15906 12.7303C9.01396 12.4736 9.80175 12.0237 10.4644 11.4137C11.127 10.8037 11.6476 10.0492 11.9877 9.20572H9.37024C9.17671 10.6211 8.76504 11.887 8.15906 12.7303ZM0.914146 9.20572C1.25431 10.0492 1.77489 10.8037 2.43751 11.4137C3.10013 12.0237 3.88792 12.4736 4.74283 12.7303C4.13684 11.887 3.74897 10.6211 3.53085 9.20572H0.914146Z" fill="#3396FF"/>
</g>
<defs>
<clipPath id="clip0_6036_6367">
<rect width="12.6909" height="13" fill="white" transform="translate(0.454102 0.667969)"/>
</clipPath>
</defs>
</svg>
